<svg width="39" height="38" viewBox="0 0 39 38" fill="none" xmlns="http://www.w3.org/2000/svg">
<path d="M19.0657 38C29.5955 38 38.1315 29.4934 38.1315 19C38.1315 8.50659 29.5955 0 19.0657 0C8.53603 0 0 8.50659 0 19C0 29.4934 8.53603 38 19.0657 38Z" fill="white"/>
<path fill-rule="evenodd" clip-rule="evenodd" d="M21.4165 23.9498L16.4653 19.0001L21.4165 14.0504C21.811 13.6544 21.811 13.0321 21.4165 12.6361C21.02 12.2401 20.397 12.2401 20.0005 12.6361L14.3442 18.2931C13.9478 18.6891 13.9478 19.3111 14.3442 19.7071L20.0005 25.3641C20.397 25.7601 21.02 25.7601 21.4165 25.3641C21.811 24.9681 21.811 24.3458 21.4165 23.9498Z" fill="#434343"/>
</svg>
