<svg width="39" height="38" viewBox="0 0 39 38" fill="none" xmlns="http://www.w3.org/2000/svg">
<path d="M19.065 38C29.5943 38 38.13 29.4934 38.13 19C38.13 8.50659 29.5943 0 19.065 0C8.53569 0 0 8.50659 0 19C0 29.4934 8.53569 38 19.065 38Z" fill="white"/>
<path fill-rule="evenodd" clip-rule="evenodd" d="M16.7138 14.0504L21.6648 19.0001L16.7138 23.9498C16.3193 24.3458 16.3193 24.9681 16.7138 25.3641C17.1103 25.7601 17.7333 25.7601 18.1279 25.3641L23.7859 19.7071C24.1822 19.3111 24.1822 18.6891 23.7859 18.2931L18.1298 12.6361C17.7333 12.2401 17.1103 12.2401 16.7138 12.6361C16.3193 13.0321 16.3193 13.6544 16.7138 14.0504Z" fill="#434343"/>
</svg>
